<svg width="28" height="21" viewBox="0 0 28 21" fill="none" xmlns="http://www.w3.org/2000/svg">
<g clip-path="url(#clip0_36_143)">
<path d="M5.31841 1.16913C5.40976 1.26322 5.5011 1.39873 5.50149 1.53504C5.50187 1.77067 5.23446 2.09033 4.74005 2.61547C2.67846 4.66899 1.64145 7.18371 1.64844 10.2167C1.65622 13.5722 2.74687 16.2671 4.86676 18.3556C5.31258 18.7677 5.49566 19.0918 5.49643 19.3693C5.49643 19.5052 5.40587 19.6467 5.31492 19.783C5.22941 19.8775 5.04711 19.9724 4.91574 19.9724C4.42522 19.9736 3.7388 19.3737 2.84249 18.2064C1.09729 15.9937 0.308256 13.5501 0.263946 10.22C0.223134 6.88817 1.23294 4.62878 3.20941 2.29621C3.9207 1.46266 4.51384 1.0296 4.91846 1.0288C5.04983 1.02839 5.18665 1.07504 5.31841 1.16913Z" fill="#0A0A23"/>
<path d="M16.1468 10.8177C15.3721 10.613 18.5508 6.72792 12.9013 2.07645C12.9013 2.07645 13.6425 4.51276 9.90488 9.94953C6.16533 15.3843 11.5677 18.622 11.5677 18.622C11.5677 18.622 9.03228 17.2243 11.9797 12.2479C12.5071 11.3452 13.1974 10.5277 14.0545 8.68775C14.0545 8.68775 14.8132 9.79553 14.4171 12.1973C13.8248 15.8266 16.986 14.788 17.0349 14.8386C18.1392 16.1837 16.1203 18.5476 15.9975 18.622C15.8751 18.6944 21.7629 14.9581 17.5799 9.33512C17.2934 9.63147 16.921 11.0227 16.1468 10.8177Z" fill="#0A0A23"/>
<path d="M22.3596 1.16731C22.2682 1.2614 22.1769 1.39691 22.1765 1.53322C22.1761 1.76885 22.4435 2.08852 22.938 2.61366C24.9995 4.66677 26.0366 7.18189 26.0296 10.2149C26.0218 13.5704 24.9311 16.2653 22.8112 18.3538C22.3654 18.7659 22.1823 19.09 22.1816 19.3675C22.1816 19.5034 22.2721 19.6449 22.3631 19.7812C22.4486 19.8757 22.6309 19.9702 22.7623 19.9706C23.2528 19.9718 23.9392 19.3719 24.8355 18.2046C26.5807 15.9919 27.3697 13.5483 27.4141 10.2181C27.4549 6.88635 26.4451 4.62696 24.4686 2.29439C23.7573 1.46084 23.1642 1.02778 22.7595 1.02698C22.6282 1.02658 22.4914 1.07322 22.3596 1.16731Z" fill="#0A0A23"/>
</g>
<defs>
<clipPath id="clip0_36_143">
<rect width="27.6744" height="19.4615" fill="white" transform="translate(0 0.769234)"/>
</clipPath>
</defs>
</svg>
