<svg width="55" height="36" viewBox="0 0 55 36" fill="none" xmlns="http://www.w3.org/2000/svg">
<rect width="18.9344" height="18.4391" transform="matrix(1 0 0 -1 0 18.4391)" fill="#09A1CD"/>
<rect x="0.25" y="-0.25" width="18.4344" height="17.9391" transform="matrix(1 0 0 -1 0 17.9391)" stroke="black" stroke-opacity="0.32" stroke-width="0.5"/>
<rect width="18.9344" height="18.4391" transform="matrix(1 0 0 -1 18.0328 18.4392)" fill="#09A1CD"/>
<rect x="0.25" y="-0.25" width="18.4344" height="17.9391" transform="matrix(1 0 0 -1 18.0328 17.9392)" stroke="black" stroke-opacity="0.32" stroke-width="0.5"/>
<rect width="18.9344" height="18.4391" transform="matrix(1 0 0 -1 18.0328 36)" fill="#09A1CD"/>
<rect x="0.25" y="-0.25" width="18.4344" height="17.9391" transform="matrix(1 0 0 -1 18.0328 35.5)" stroke="black" stroke-opacity="0.32" stroke-width="0.5"/>
<rect width="18.9344" height="18.4391" transform="matrix(1 0 0 -1 36.0656 36)" fill="#09A1CD"/>
<rect x="0.25" y="-0.25" width="18.4344" height="17.9391" transform="matrix(1 0 0 -1 36.0656 35.5)" stroke="black" stroke-opacity="0.32" stroke-width="0.5"/>
</svg>
