<svg width="58" height="75" viewBox="0 0 58 75" fill="none" xmlns="http://www.w3.org/2000/svg">
<rect width="25.5647" height="29.0887" transform="matrix(0.00623102 0.999981 0.999981 -0.00623102 27.7028 0.181396)" fill="#0C6294"/>
<rect x="0.251553" y="0.248437" width="25.0647" height="28.5887" transform="matrix(0.00623102 0.999981 0.999981 -0.00623102 27.7043 0.179834)" stroke="black" stroke-opacity="0.32" stroke-width="0.5"/>
<rect width="25.5647" height="29.0887" transform="matrix(0.00623102 0.999981 0.999981 -0.00623102 27.8545 24.5281)" fill="#0C6294"/>
<rect x="0.251553" y="0.248437" width="25.0647" height="28.5887" transform="matrix(0.00623102 0.999981 0.999981 -0.00623102 27.856 24.5265)" stroke="black" stroke-opacity="0.32" stroke-width="0.5"/>
<rect width="25.5647" height="29.0887" transform="matrix(0.00623102 0.999981 0.999981 -0.00623102 0.151611 24.7007)" fill="#0C6294"/>
<rect x="0.251553" y="0.248437" width="25.0647" height="28.5887" transform="matrix(0.00623102 0.999981 0.999981 -0.00623102 0.153164 24.6991)" stroke="black" stroke-opacity="0.32" stroke-width="0.5"/>
<rect width="25.5647" height="29.0887" transform="matrix(0.00623102 0.999981 0.999981 -0.00623102 0.303345 49.0476)" fill="#0C6294"/>
<rect x="0.251553" y="0.248437" width="25.0647" height="28.5887" transform="matrix(0.00623102 0.999981 0.999981 -0.00623102 0.304898 49.046)" stroke="black" stroke-opacity="0.32" stroke-width="0.5"/>
</svg>
