<svg width="60" height="38" viewBox="0 0 60 38" fill="none" xmlns="http://www.w3.org/2000/svg">
<rect width="20.5789" height="19.0528" transform="matrix(0.999982 -0.00603048 -0.00603048 -0.999982 0.114868 19.413)" fill="#7ED8F2"/>
<rect x="0.248488" y="-0.251503" width="20.0789" height="18.5528" transform="matrix(0.999982 -0.00603048 -0.00603048 -0.999982 0.113356 18.9115)" stroke="black" stroke-opacity="0.32" stroke-width="0.5"/>
<rect width="20.5789" height="19.0528" transform="matrix(0.999982 -0.00603048 -0.00603048 -0.999982 19.7135 19.2947)" fill="#7ED8F2"/>
<rect x="0.248488" y="-0.251503" width="20.0789" height="18.5528" transform="matrix(0.999982 -0.00603048 -0.00603048 -0.999982 19.712 18.7932)" stroke="black" stroke-opacity="0.32" stroke-width="0.5"/>
<rect width="20.5789" height="19.0528" transform="matrix(0.999982 -0.00603048 -0.00603048 -0.999982 39.3121 19.1766)" fill="#7ED8F2"/>
<rect x="0.248488" y="-0.251503" width="20.0789" height="18.5528" transform="matrix(0.999982 -0.00603048 -0.00603048 -0.999982 39.3106 18.6751)" stroke="black" stroke-opacity="0.32" stroke-width="0.5"/>
<rect width="20.5789" height="19.0528" transform="matrix(0.999982 -0.00603048 -0.00603048 -0.999982 39.4215 37.3217)" fill="#7ED8F2"/>
<rect x="0.248488" y="-0.251503" width="20.0789" height="18.5528" transform="matrix(0.999982 -0.00603048 -0.00603048 -0.999982 39.42 36.8202)" stroke="black" stroke-opacity="0.32" stroke-width="0.5"/>
</svg>
